<svg width="2864" height="519" viewBox="0 0 2864 519" fill="none" xmlns="http://www.w3.org/2000/svg">
<rect x="2280.8" y="136.578" width="54.6299" height="245.835" fill="white"/>
<rect x="1971.23" y="136.578" width="54.6299" height="245.835" fill="white"/>
<circle cx="2494.77" cy="259.495" r="95.6024" stroke="white" stroke-width="54.6299"/>
<path d="M414.278 382.413L318.676 136.578H355.096L414.278 295.915L478.013 136.578H569.063L546.301 172.998H496.223L414.278 382.413Z" fill="white"/>
<line x1="196.33" y1="44.2613" x2="356.912" y2="489.657" stroke="white" stroke-width="36.42"/>
<line x1="241.859" y1="16.941" x2="402.441" y2="462.337" stroke="white" stroke-width="36.42"/>
<circle cx="282.254" cy="259.492" r="241.282" stroke="white" stroke-width="36.42"/>
<line x1="104.251" y1="148.68" x2="176.542" y2="361.62" stroke="white" stroke-width="27.315"/>
<line x1="53.9032" y1="159.492" x2="126.194" y2="372.432" stroke="white" stroke-width="27.315"/>
<path d="M0 136.578L22.7625 172.998H177.547C232.177 182.103 300.465 295.915 177.547 350.545H36.42L54.6299 382.413H177.547C227.625 373.308 277.994 325.423 280.649 264.048C282.74 215.713 241.282 150.236 177.547 136.578H0Z" fill="white"/>
<path d="M1133.57 136.578H960.576V382.413H1133.57V332.335H1010.65V282.258H1124.47V236.733H1010.65V191.208H1133.57V136.578Z" fill="white"/>
<path d="M2863.52 382.413V136.578H2813.44V286.81L2699.63 136.578H2654.11V382.413H2708.74V232.181L2822.55 382.413H2863.52Z" fill="white"/>
<path d="M1802.79 382.413L1707.18 136.578H1766.37L1825.55 295.915H1834.65L1889.28 136.578H1953.02L1852.86 382.413H1802.79Z" fill="white"/>
<path fill-rule="evenodd" clip-rule="evenodd" d="M705.639 136.562V382.397H814.899C883.186 373.292 923.536 314.11 924.158 254.927C924.158 209.402 887.738 150.22 814.899 136.562H705.639ZM760.269 191.185V327.76H824.004C883.186 295.892 883.186 223.052 824.004 191.185H760.269Z" fill="white"/>
<path fill-rule="evenodd" clip-rule="evenodd" d="M1151.78 382.397L1256.48 136.562H1302.01L1406.72 382.397H1352.09L1324.77 327.767H1224.62L1206.41 382.397H1151.78ZM1242.83 282.237H1311.11L1274.69 204.844L1242.83 282.237Z" fill="white"/>
<path fill-rule="evenodd" clip-rule="evenodd" d="M1424.93 382.397V136.562H1534.19C1616.14 141.115 1643.45 282.242 1534.19 309.557H1479.56V382.397H1424.93ZM1479.56 264.039V182.095H1536.57C1569.82 193.02 1569.82 253.113 1536.57 264.039H1479.56Z" fill="white"/>
<path d="M2062.28 341.44L2094.15 305.02C2112.36 323.23 2130.57 332.335 2157.88 332.335C2180.65 332.335 2194.3 327.783 2194.3 314.125C2194.3 286.81 2151.92 284.14 2126.02 277.705C2098.7 270.92 2071.39 241.285 2071.39 213.971C2071.39 161.468 2121.46 136.578 2148.78 136.578C2188.33 136.578 2217.66 151.818 2239.83 168.446L2212.51 209.418C2207.96 204.866 2189.75 186.656 2153.33 186.656C2138.92 186.656 2121.46 193.24 2121.46 204.866C2121.46 245.838 2244.38 232.181 2244.38 309.573C2244.38 350.545 2212.51 382.413 2157.88 382.413C2121.46 382.413 2085.04 368.755 2062.28 341.44Z" fill="white"/>
</svg>
