<svg version="1.1" id="Layer_1" xmlns="http://www.w3.org/2000/svg" xmlns:xlink="http://www.w3.org/1999/xlink" x="0px" y="0px"
	 width="100%" viewBox="0 0 1589 285" enable-background="new 0 0 1589 285" xml:space="preserve">
<path fill="#FFFFFF" opacity="1.000000" stroke="none" 
	d="
M1589.656982,207.743454 
	C1590.000000,232.992691 1589.961426,257.985535 1590.060791,282.977814 
	C1590.070557,285.421967 1589.583130,286.505310 1587.020264,286.018280 
	C1586.376953,285.896027 1585.690796,286.000000 1585.024292,286.000000 
	C1114.328613,286.000000 643.632996,286.000000 172.468658,286.000000 
	C173.015945,282.624756 176.127548,283.182129 178.509888,282.780334 
	C190.556259,280.748505 202.249680,277.650940 213.372055,272.473328 
	C253.102448,253.978333 279.558868,223.970367 291.621155,181.735977 
	C299.372620,154.595322 298.489899,127.436707 290.278687,100.479012 
	C288.274933,93.900612 289.053986,92.869934 295.854736,92.654755 
	C298.445923,92.572769 301.495850,93.621498 303.460571,91.333611 
	C306.093628,88.267464 307.388458,84.339348 308.379547,80.507385 
	C309.053833,77.900223 306.400665,78.397369 304.924805,78.367615 
	C298.763885,78.243423 292.599640,78.289726 286.437439,78.320961 
	C282.726868,78.339767 280.135132,76.850708 278.336029,73.573570 
	C271.541718,61.197418 262.682068,50.433353 252.155396,40.515678 
	C250.550034,38.804520 249.269531,37.301369 247.252823,36.054428 
	C246.730179,35.715851 246.524521,35.573479 246.022125,35.199181 
	C225.989319,18.243090 203.125748,8.455289 177.719254,4.312261 
	C174.980209,3.865608 172.041824,4.046805 169.954376,1.378106 
	C641.695557,1.000000 1113.391113,1.008536 1585.086670,0.871835 
	C1589.546143,0.870542 1590.135010,2.075604 1590.100830,6.084607 
	C1589.896973,30.075851 1590.000000,54.069706 1590.000000,78.531342 
	C1587.545898,81.017128 1584.604492,80.349174 1581.828247,80.405403 
	C1577.165405,80.499832 1572.490112,80.609711 1567.837280,80.380562 
	C1563.630005,80.173355 1562.357300,82.004425 1562.380127,86.002556 
	C1562.491577,105.493622 1562.502441,124.986267 1562.364380,144.477097 
	C1562.341187,147.756851 1563.973389,152.569092 1559.837402,153.741714 
	C1556.360840,154.727417 1554.701782,150.169785 1552.799561,147.650269 
	C1537.742554,127.707657 1522.254150,108.087593 1507.542603,87.892014 
	C1503.461060,82.289162 1498.967163,79.505074 1492.071289,80.369194 
	C1489.118530,80.739189 1486.080566,80.380707 1483.083008,80.446167 
	C1477.962891,80.557945 1477.547363,81.009346 1477.438843,86.320900 
	C1477.404785,87.986305 1477.431030,89.652740 1477.431030,91.318703 
	C1477.431030,127.303535 1477.426514,163.288361 1477.434814,199.273193 
	C1477.436523,206.488602 1477.507080,206.543823 1484.629883,206.566101 
	C1488.794800,206.579132 1492.961060,206.637436 1497.124268,206.546524 
	C1502.065796,206.438614 1502.542358,205.937164 1502.552979,200.453171 
	C1502.592896,179.795288 1502.564209,159.137299 1502.572754,138.479340 
	C1502.573608,136.647949 1502.485107,134.808258 1502.769653,132.991074 
	C1502.975708,131.675156 1503.166260,130.215912 1504.675659,129.756943 
	C1506.131104,129.314362 1507.290771,130.196518 1508.177124,131.204071 
	C1511.259033,134.706848 1514.085327,138.424088 1516.881836,142.151764 
	C1530.877686,160.807648 1545.446777,179.035782 1559.078979,197.955353 
	C1563.598389,204.227676 1568.489868,207.649506 1576.492065,206.716507 
	C1580.671631,206.229202 1585.136597,205.747665 1589.656982,207.743454 
z"/>
<path fill="#316643" opacity="1.000000" stroke="none" 
	d="
M251.829453,38.784718 
	C263.363953,48.728973 272.525787,60.198082 279.610016,73.281128 
	C281.051270,75.942780 282.662079,77.140686 285.749634,77.062073 
	C293.242157,76.871330 300.743286,77.047897 308.239960,76.974045 
	C310.713196,76.949684 311.664520,77.522575 310.448944,80.113136 
	C308.524323,84.214561 306.622711,88.345497 305.078003,92.597153 
	C304.468719,94.274139 303.481659,93.964981 302.429321,93.981125 
	C299.264496,94.029694 296.097473,94.048149 292.933228,93.983803 
	C290.750977,93.939438 289.376587,94.108383 290.420166,96.996231 
	C296.919250,114.980423 298.996338,133.632980 297.942963,152.606308 
	C296.707977,174.852097 290.211151,195.646866 279.385193,215.081360 
	C273.471069,225.698273 265.805084,235.122238 257.453766,243.787750 
	C249.079239,252.477325 239.392227,259.833527 228.925171,266.000366 
	C212.978256,275.395691 195.993561,281.855682 177.504944,284.044189 
	C175.749847,284.251953 174.040024,284.842072 172.154587,285.627350 
	C160.312439,286.000000 148.624878,286.000000 136.468658,286.000000 
	C128.971161,284.275421 121.774422,283.388977 114.803391,281.299988 
	C94.933685,275.345612 77.278374,265.517517 61.610561,251.956894 
	C56.576248,247.599655 51.586128,243.263397 47.663017,237.388397 
	C46.789406,235.499695 46.779743,233.634872 45.314453,232.033295 
	C44.960796,231.623795 44.819954,231.458176 44.461056,231.046860 
	C43.533653,229.681625 42.889717,228.516098 41.713211,227.293427 
	C41.300400,226.854095 41.132881,226.673950 40.744087,226.187164 
	C29.995169,210.403168 22.593660,193.607574 19.141890,175.148834 
	C14.686241,151.321762 15.568523,127.755081 22.607323,104.491394 
	C22.896852,103.534477 23.257851,102.598434 23.512280,101.631958 
	C25.138397,95.454964 22.222080,91.580154 15.791310,91.356010 
	C7.817359,91.078079 7.015760,90.602615 5.082118,85.003830 
	C3.820390,81.350548 4.544630,80.022758 8.465793,79.774925 
	C13.952767,79.428108 19.478695,79.398018 24.953522,79.736679 
	C30.091146,80.054474 33.138451,78.098129 35.840385,73.699654 
	C50.923515,49.145927 70.929230,29.722466 97.234116,17.478073 
	C113.674721,9.825306 131.074036,5.684602 149.287323,4.538659 
	C176.500702,2.826448 201.770279,9.207474 225.830750,21.421328 
	C233.116791,25.119955 239.521881,30.197775 246.736633,34.752678 
	C247.092880,34.939449 247.011703,34.983078 247.034882,34.943260 
	C248.168900,36.604969 249.446335,38.104939 251.829453,38.784718 
z"/>
<path fill="#241D1C" opacity="1.000000" stroke="none" 
	d="
M1590.000000,207.531342 
	C1584.671021,208.000000 1579.266846,207.438187 1574.031860,208.139679 
	C1567.215576,209.053070 1563.158691,206.065826 1559.348267,200.947739 
	C1542.104614,177.786484 1524.634277,154.793930 1507.217773,131.761658 
	C1506.656128,131.018890 1505.794189,130.503220 1504.881470,129.717514 
	C1503.385620,131.531616 1504.040527,133.409775 1504.036499,135.076797 
	C1503.982178,157.891113 1503.896484,180.706558 1504.101807,203.519165 
	C1504.136108,207.329773 1503.125732,208.268112 1499.442627,208.090576 
	C1492.796997,207.770233 1486.123413,207.923904 1479.464355,208.041061 
	C1477.132202,208.082077 1475.925659,207.844910 1475.932739,204.928528 
	C1476.032227,163.962662 1476.019165,122.996445 1475.952026,82.030441 
	C1475.948120,79.652779 1476.584961,78.893990 1479.006226,78.946640 
	C1485.997070,79.098671 1493.003052,79.219032 1499.983765,78.912071 
	C1503.736084,78.747070 1504.594604,81.923409 1506.029297,83.768303 
	C1515.978394,96.563095 1525.285278,109.860420 1535.324341,122.581291 
	C1543.074219,132.401398 1550.418579,142.514832 1558.060669,152.407745 
	C1558.524658,153.008240 1558.966431,154.008057 1559.953125,153.467941 
	C1560.656738,153.082764 1561.086670,152.351669 1561.016479,151.393082 
	C1560.931396,150.233734 1560.999756,149.063187 1560.999756,147.897491 
	C1561.000000,126.415268 1561.114990,104.931854 1560.894287,83.451897 
	C1560.854370,79.582001 1561.965576,78.778595 1565.585327,78.911644 
	C1573.401611,79.198914 1581.235840,79.000000 1589.531372,79.000000 
	C1590.000000,121.687561 1590.000000,164.375122 1590.000000,207.531342 
z"/>
<path fill="#FFFFFF" opacity="1.000000" stroke="none" 
	d="
M47.782307,235.831757 
	C65.244003,257.028839 87.147583,271.076202 112.832146,279.315063 
	C119.913231,281.586487 127.084915,283.843475 134.657410,284.029602 
	C135.394180,284.047729 135.897186,284.357269 135.985306,285.578674 
	C92.389740,286.000000 48.779202,285.933380 5.169709,286.116516 
	C1.357516,286.132507 0.912929,285.078094 0.918556,281.680084 
	C1.028255,215.432617 1.000000,149.184952 1.000000,82.468658 
	C4.447226,81.703827 5.073780,84.558647 5.763814,86.759773 
	C7.196570,91.330101 10.038403,93.231018 14.716762,92.635750 
	C15.534749,92.531670 16.378922,92.608063 17.209265,92.650398 
	C22.676500,92.929146 23.737078,94.276863 22.061659,99.541527 
	C17.071688,115.221497 14.925815,131.224136 15.307215,147.702713 
	C15.914925,173.959091 23.330824,198.037399 37.164730,220.249237 
	C38.477547,222.357101 40.114437,224.273575 41.079731,227.041092 
	C41.155178,227.445755 41.303799,227.680710 41.418106,227.759796 
	C43.573307,227.791077 43.302979,229.881119 44.219398,231.129272 
	C44.154766,231.444901 44.302925,231.679749 44.416885,231.759048 
	C46.627441,232.187286 46.595921,234.300461 47.782307,235.831757 
z"/>
<path fill="#FFFFFF" opacity="1.000000" stroke="none" 
	d="
M1.307679,77.243317 
	C1.000000,53.048252 1.123859,29.095217 0.875015,5.146056 
	C0.834721,1.268098 2.006572,0.915361 5.338343,0.923647 
	C50.912903,1.036989 96.487839,1.000000 142.531342,1.000000 
	C141.794006,4.602523 138.396515,3.704596 135.932404,4.077328 
	C125.198257,5.701030 114.700371,8.197787 104.617790,12.184450 
	C74.837059,23.959780 51.668255,43.705051 35.146816,71.059990 
	C31.894127,76.445549 28.210363,79.024445 21.919390,78.368713 
	C15.184361,77.666687 8.327094,79.209496 1.307679,77.243317 
z"/>
<path fill="#316643" opacity="1.000000" stroke="none" 
	d="
M1.000000,77.416664 
	C9.475631,76.999969 17.951790,76.947853 26.426546,77.033859 
	C28.759083,77.057518 30.103502,76.511444 31.458902,74.222137 
	C39.152397,61.227623 48.278782,49.342083 59.423046,39.026257 
	C76.792412,22.948080 96.874931,11.950983 119.758583,5.996548 
	C127.299805,4.034284 134.987000,2.892599 142.838837,1.377176 
	C151.687561,1.000000 160.375137,1.000000 169.531342,1.000000 
	C176.962219,4.055943 184.631500,3.901726 191.873138,5.879090 
	C212.273987,11.449626 230.808167,20.383051 246.958374,34.624969 
	C245.619034,34.927765 244.146744,35.210163 242.808060,34.140430 
	C224.307449,19.356543 202.783005,11.325598 179.827362,7.278705 
	C158.532852,3.524657 137.438904,5.661565 116.593018,11.585775 
	C90.309227,19.055386 69.245331,34.293022 51.342979,54.312595 
	C45.502014,60.844349 40.297054,67.999916 36.135143,75.782181 
	C34.158264,79.478706 31.763100,81.458549 27.168177,81.117073 
	C20.875399,80.649414 14.521194,81.048027 8.194354,80.979492 
	C5.650563,80.951935 5.016028,81.605865 6.010631,84.202415 
	C7.579488,88.298134 9.596389,90.449806 14.611027,90.155190 
	C23.812674,89.614578 27.108027,94.687256 24.309717,103.524933 
	C18.115488,123.087677 16.630188,143.051956 18.832439,163.447922 
	C21.176537,185.157562 28.099514,205.075226 40.442581,223.102631 
	C41.176350,224.174316 41.978344,225.317764 41.373547,227.114182 
	C33.063995,217.382370 27.728897,205.874680 22.870319,193.989944 
	C14.480439,173.467194 12.886809,152.040115 14.201782,130.369278 
	C14.844736,119.773346 17.033394,109.181297 20.954428,99.129890 
	C22.316132,95.639214 22.422075,92.997742 17.394720,94.009224 
	C9.724205,95.552490 5.120731,92.765854 3.843494,84.811287 
	C3.688890,83.848419 2.434688,83.062119 1.345058,82.096992 
	C1.000000,80.611107 1.000000,79.222221 1.000000,77.416664 
z"/>
<path fill="#241D1C" opacity="1.000000" stroke="none" 
	d="
M1355.374023,203.758850 
	C1335.617310,193.866562 1323.268188,178.277618 1319.270996,157.152313 
	C1315.345947,136.407883 1319.879272,117.209518 1333.800903,100.618454 
	C1344.736206,87.586571 1358.668823,80.549377 1375.295410,77.937592 
	C1393.574463,75.066231 1410.741821,78.136398 1426.112427,88.158714 
	C1441.019531,97.878830 1450.551636,112.051582 1453.864990,129.593735 
	C1457.515015,148.918121 1454.291626,167.127289 1442.292603,183.286911 
	C1431.938843,197.230835 1418.144531,205.840988 1401.188721,208.901581 
	C1385.657593,211.705048 1370.335449,210.498016 1355.374023,203.758850 
z"/>
<path fill="#241D1C" opacity="1.000000" stroke="none" 
	d="
M511.999908,137.267517 
	C512.707092,150.477951 511.198273,162.913254 504.900085,174.149887 
	C495.361786,191.167175 480.988831,201.978622 461.696960,206.022339 
	C442.820404,209.979019 423.736603,207.301437 404.758240,207.928085 
	C393.010468,208.315979 393.000000,208.000000 393.000000,196.244370 
	C393.000000,158.782867 393.050781,121.321198 392.920563,83.860153 
	C392.907684,80.158981 393.562561,78.818291 397.672638,78.887321 
	C413.984589,79.161255 430.331909,78.390556 446.613983,79.140121 
	C472.254181,80.320511 492.997589,90.659874 505.555145,114.148994 
	C509.308136,121.169029 511.031372,128.909760 511.999908,137.267517 
z"/>
<path fill="#241D1C" opacity="1.000000" stroke="none" 
	d="
M572.019775,182.000000 
	C590.671997,182.000015 608.827271,182.084641 626.980408,181.921875 
	C630.240662,181.892654 631.216675,182.739532 631.077881,186.019211 
	C630.810608,192.337006 630.892700,198.676849 631.053955,205.001831 
	C631.116028,207.436920 630.326599,208.053421 627.960449,208.047882 
	C596.981323,207.975250 566.001709,207.934143 535.023071,208.077820 
	C530.889893,208.097000 532.028687,205.526550 532.026733,203.487488 
	C531.990234,165.846008 532.000000,128.204483 532.000000,90.562965 
	C532.000000,79.000000 532.000000,79.000000 543.461853,79.000000 
	C570.776917,79.000000 598.092468,79.070114 625.406616,78.915031 
	C628.991089,78.894676 630.372925,79.528557 630.100159,83.448242 
	C629.708008,89.083832 629.761047,94.780777 630.085571,100.424995 
	C630.295593,104.077454 629.380737,105.147873 625.534790,105.104622 
	C605.550659,104.879898 585.561707,105.097038 565.576843,104.911011 
	C561.956360,104.877312 560.628357,105.579956 560.902405,109.465073 
	C561.288147,114.934189 561.188782,120.459808 560.928162,125.943756 
	C560.775513,129.154846 561.652161,130.116089 564.982849,130.082825 
	C582.635925,129.906479 600.292480,130.080490 617.945923,129.926208 
	C621.141846,129.898270 622.242249,130.637695 622.081116,133.985352 
	C621.793030,139.967484 621.810791,145.981812 622.075562,151.966095 
	C622.219482,155.218399 621.283325,156.112152 617.994934,156.080124 
	C600.508240,155.909775 583.017639,156.119843 565.531921,155.903763 
	C561.819214,155.857880 560.671387,156.719040 560.905701,160.509216 
	C561.264771,166.316452 561.200073,172.171829 560.922241,177.988007 
	C560.764832,181.283829 561.769348,182.436539 565.032288,182.047958 
	C567.167175,181.793716 569.356934,181.999985 572.019775,182.000000 
z"/>
<path fill="#241D1C" opacity="1.000000" stroke="none" 
	d="
M757.996216,162.954681 
	C763.690002,176.318756 769.346375,189.287491 774.978088,202.266922 
	C775.675537,203.874268 776.242432,205.538300 777.185425,208.000000 
	C769.714539,208.000000 762.534241,208.000000 755.353943,208.000000 
	C746.031372,208.000000 746.153870,207.954605 742.947205,199.302124 
	C740.662109,193.136246 737.925659,187.138962 735.536011,181.009735 
	C734.866821,179.293365 733.855591,178.964890 732.200500,178.970169 
	C716.379333,179.020645 700.557434,179.064178 684.737183,178.935181 
	C682.212585,178.914612 681.219116,180.120346 680.441101,182.086975 
	C677.425964,189.708374 674.482788,197.354111 671.243225,204.891861 
	C670.111694,207.524658 669.037598,208.031250 666.707520,208.018616 
	C658.049255,207.971710 649.390564,207.999924 640.070801,207.999924 
	C643.610291,199.495331 646.994507,191.274719 650.448181,183.083344 
	C658.624756,163.690323 666.789246,144.292007 675.045044,124.932716 
	C681.225464,110.440147 687.641235,96.047058 693.712646,81.509644 
	C694.952759,78.540382 696.560791,77.821487 699.545532,77.928352 
	C706.032288,78.160606 712.533325,78.027229 719.028076,77.984909 
	C721.203430,77.970741 722.167480,78.537270 723.170471,80.956467 
	C731.234985,100.407654 739.691162,119.696274 747.997070,139.047653 
	C751.354248,146.869202 754.635437,154.723312 757.996216,162.954681 
z"/>
<path fill="#241D1C" opacity="1.000000" stroke="none" 
	d="
M792.000000,123.000000 
	C792.000000,109.345406 792.107727,96.189293 791.923035,83.037292 
	C791.877747,79.809456 792.697510,78.886047 795.997559,78.919052 
	C813.313293,79.092194 830.651245,78.486183 847.943542,79.145920 
	C864.906555,79.793098 879.706482,85.440880 888.805481,101.247208 
	C891.500244,105.928505 893.388428,111.015068 893.807678,116.171379 
	C894.765686,127.954453 894.490784,139.764633 886.994995,149.924255 
	C879.835327,159.628296 870.174072,165.385498 858.451904,168.038742 
	C847.377014,170.545486 836.166748,170.068741 824.979675,169.912460 
	C821.642700,169.865845 820.861267,170.859756 820.925049,174.056000 
	C821.127563,184.209305 820.891663,194.371078 821.068481,204.525360 
	C821.118835,207.418564 820.202454,208.132751 817.437988,208.061646 
	C810.282654,207.877594 803.111755,207.804840 795.962646,208.085373 
	C792.577698,208.218201 791.916260,207.079910 791.930542,203.925980 
	C792.052063,177.117767 792.000000,150.308762 792.000000,123.000000 
z"/>
<path fill="#241D1C" opacity="1.000000" stroke="none" 
	d="
M1153.207031,135.563965 
	C1142.440552,112.327103 1152.160522,84.957138 1180.122192,79.007790 
	C1201.747437,74.406616 1221.514648,79.054939 1239.664307,91.299118 
	C1241.676025,92.656288 1242.950439,94.089638 1240.754272,96.932770 
	C1236.517944,102.416824 1232.823608,108.325737 1229.018677,114.133202 
	C1227.899780,115.841064 1227.307251,116.283966 1225.261841,114.909126 
	C1216.791016,109.215614 1207.769043,104.617317 1197.468750,103.211639 
	C1191.599243,102.410622 1185.987915,103.449486 1181.398682,107.231071 
	C1175.826904,111.822350 1176.498413,121.306664 1187.328857,124.925011 
	C1197.218994,128.229141 1207.314087,130.914627 1217.275879,134.010864 
	C1226.643066,136.922287 1234.860596,141.747162 1240.887451,149.656097 
	C1248.527100,159.681549 1247.991821,183.107239 1238.916382,193.695496 
	C1231.260132,202.627914 1221.681519,207.310318 1210.254883,209.031677 
	C1186.394897,212.626022 1165.392578,205.942688 1146.326782,191.801041 
	C1143.652710,189.817596 1143.815918,187.992233 1145.737305,185.773590 
	C1150.027832,180.819000 1154.351196,175.891998 1158.588135,170.891968 
	C1160.483521,168.655167 1161.837646,168.773605 1164.301270,170.620544 
	C1175.111816,178.724930 1186.832886,184.640228 1200.920532,184.039215 
	C1204.218628,183.898468 1207.338257,183.168869 1210.281372,181.870407 
	C1214.023560,180.219437 1216.597656,177.686844 1217.092529,173.141632 
	C1217.666748,167.865616 1214.584595,165.077057 1210.774658,163.050476 
	C1203.057129,158.945251 1194.435669,157.380661 1186.116699,154.951645 
	C1175.744141,151.923004 1165.149902,149.177155 1157.367920,140.838577 
	C1155.929810,139.297577 1154.709229,137.553757 1153.207031,135.563965 
z"/>
<path fill="#241D1C" opacity="1.000000" stroke="none" 
	d="
M956.708984,95.287346 
	C954.786316,90.632843 953.156860,86.274284 951.410278,81.963196 
	C950.541870,79.819717 950.996765,78.954910 953.420898,78.973534 
	C962.418396,79.042641 971.419617,79.127235 980.412537,78.913132 
	C982.700806,78.858658 983.382874,80.230515 983.888123,81.603706 
	C991.986145,103.614540 999.962463,125.670105 1008.027832,147.693024 
	C1010.275757,153.830902 1012.722168,159.896072 1015.394775,166.816147 
	C1019.845032,158.647232 1021.983459,150.532593 1024.932739,142.771912 
	C1032.751221,122.197975 1040.381348,101.551231 1047.866943,80.854050 
	C1048.516113,79.059052 1049.228516,78.997002 1050.570312,78.997787 
	C1060.226196,79.003433 1069.882202,79.000809 1080.379272,79.000809 
	C1076.810059,87.854546 1073.386841,96.233971 1070.049805,104.647659 
	C1063.000610,122.421295 1056.270874,140.327682 1048.892212,157.962967 
	C1042.252319,173.832474 1035.887451,189.803955 1029.633301,205.823853 
	C1028.761841,208.055847 1027.521973,209.155045 1024.871460,209.070297 
	C1018.213074,208.857391 1011.539734,208.876648 1004.880310,209.072784 
	C1002.806763,209.133850 1001.867920,208.207916 1001.245422,206.647202 
	C988.806091,175.456177 976.397095,144.253082 963.973022,113.055946 
	C961.653076,107.230392 959.294617,101.420174 956.708984,95.287346 
z"/>
<path fill="#241D1C" opacity="1.000000" stroke="none" 
	d="
M1267.000000,133.000000 
	C1267.000000,116.008362 1267.091187,99.515785 1266.922241,83.025871 
	C1266.888916,79.775024 1267.725586,78.808678 1271.013672,78.920036 
	C1278.501343,79.173622 1286.006836,79.130928 1293.497925,78.933517 
	C1296.355957,78.858192 1297.065796,79.742073 1297.059814,82.536354 
	C1296.972534,123.182228 1296.971924,163.828415 1297.060547,204.474274 
	C1297.066650,207.284393 1296.328979,208.139465 1293.487305,208.065689 
	C1285.996094,207.871201 1278.490479,207.822906 1271.003174,208.081207 
	C1267.694702,208.195343 1266.905640,207.192871 1266.924805,203.963882 
	C1267.064453,180.476593 1267.000000,156.988113 1267.000000,133.000000 
z"/>
<path fill="#241D1C" opacity="1.000000" stroke="none" 
	d="
M1111.993408,208.000000 
	C1106.522095,207.917908 1099.832153,209.755692 1097.027832,207.248047 
	C1093.815796,204.375854 1096.054443,197.560638 1096.043091,192.470566 
	C1095.962280,156.155472 1096.061768,119.839844 1095.906250,83.525246 
	C1095.890381,79.803749 1096.742920,78.725113 1100.515503,78.902718 
	C1107.662720,79.239182 1114.839111,79.098007 1121.999023,78.946175 
	C1124.429565,78.894630 1125.051514,79.667480 1125.047607,82.037369 
	C1124.981079,123.016876 1124.980469,163.996552 1125.048462,204.976059 
	C1125.052490,207.365112 1124.402344,208.195633 1121.983765,208.047028 
	C1118.830688,207.853287 1115.656494,207.999863 1111.993408,208.000000 
z"/>
<path fill="#316643" opacity="1.000000" stroke="none" 
	d="
M251.980652,38.647202 
	C249.689713,39.008698 247.093399,39.327110 247.046814,35.298950 
	C249.478973,34.897820 250.256332,37.184525 251.980652,38.647202 
z"/>
<path fill="#FFFFFF" opacity="1.000000" stroke="none" 
	d="
M196.302460,164.716217 
	C188.435501,143.435150 180.829056,122.469566 173.177368,101.520493 
	C163.586563,75.262497 154.005493,49.000710 144.300613,22.784842 
	C142.682541,18.413918 144.885681,18.098211 148.251694,17.967640 
	C177.948822,16.815628 205.033051,24.581207 229.265106,41.824940 
	C241.971680,50.867039 252.290833,62.234074 261.152466,75.073875 
	C263.542755,78.537209 261.574707,81.007607 260.683533,83.500610 
	C251.599899,108.911423 242.309021,134.248825 232.914078,159.546585 
	C232.030228,161.926544 232.074722,165.961716 229.085968,166.065933 
	C226.773392,166.146576 226.915756,162.219070 226.132919,160.130905 
	C219.609711,142.731018 213.345901,125.233765 207.022583,107.759109 
	C203.613525,98.338127 200.274170,88.891724 196.818909,79.487831 
	C196.262894,77.974564 195.402267,76.821373 193.232605,76.925484 
	C188.264557,77.163879 183.277252,77.000893 177.812653,77.000893 
	C194.900070,123.972290 211.828613,170.506927 228.757141,217.041580 
	C229.161270,217.012192 229.565384,216.982819 229.969513,216.953445 
	C244.163025,177.992279 258.356537,139.031113 272.792816,99.403534 
	C276.653992,105.210884 277.284637,111.534576 278.897858,117.435066 
	C281.060669,125.345825 281.788818,133.669037 281.753998,141.720795 
	C281.684875,157.711578 279.067322,173.421112 273.197205,188.539993 
	C266.844849,204.900986 257.551788,219.357666 245.379135,231.755554 
	C240.415298,236.811218 235.177322,241.951370 228.880554,245.662415 
	C226.817734,246.878159 225.846771,246.304443 225.152023,244.390717 
	C217.102112,222.216507 209.059021,200.039810 201.033554,177.856735 
	C199.493454,173.599792 198.037598,169.312378 196.302460,164.716217 
z"/>
<path fill="#FFFFFF" opacity="1.000000" stroke="none" 
	d="
M160.747162,199.396530 
	C167.275940,217.373383 173.623291,234.993195 179.925629,252.629089 
	C181.067230,255.823639 181.583481,259.324860 183.181747,262.251251 
	C185.036896,265.648041 183.017776,266.421600 180.712204,266.914551 
	C176.583374,267.797272 172.392456,268.771942 168.201019,268.911285 
	C152.569534,269.431061 137.033585,269.089813 121.817238,264.470581 
	C103.015701,258.762939 86.329887,249.683502 71.712410,236.414764 
	C63.299091,228.777710 56.507694,220.016129 49.908661,210.981430 
	C51.139988,209.402420 52.573029,210.039780 53.772434,210.034348 
	C66.096672,209.978378 78.429420,210.283020 90.743713,209.928635 
	C106.257126,209.482178 119.797180,203.835144 131.268188,193.263519 
	C138.533203,186.568130 144.496689,178.923615 149.100403,168.569534 
	C153.240906,179.590057 156.895599,189.317535 160.747162,199.396530 
z"/>
<path fill="#FFFFFF" opacity="1.000000" stroke="none" 
	d="
M136.770584,138.505463 
	C137.768387,160.117126 128.686661,176.036011 111.077919,187.381622 
	C109.725471,188.253006 107.897812,188.474442 106.657753,189.232834 
	C103.622849,191.088928 102.819061,189.173431 102.071236,187.119614 
	C95.498085,169.067108 88.997284,150.988251 82.451500,132.925735 
	C77.778259,120.030342 73.068794,107.148071 68.210419,93.806633 
	C80.265457,95.040390 92.128853,92.078293 103.706795,96.832344 
	C122.124153,104.394745 133.223114,117.414749 136.089920,137.244034 
	C136.133148,137.543076 136.418167,137.807175 136.770584,138.505463 
z"/>
<path fill="#FFFFFF" opacity="1.000000" stroke="none" 
	d="
M173.255005,151.608337 
	C178.629715,166.056747 183.793762,180.160034 188.985214,194.253235 
	C195.851715,212.893738 202.785248,231.509796 209.552856,250.186050 
	C210.286331,252.210236 212.413727,254.888947 210.486374,256.570709 
	C208.136475,258.621185 204.862381,259.727295 201.541626,259.981995 
	C199.671143,260.125458 200.182632,258.536285 199.828873,257.573151 
	C194.761032,243.774994 189.670990,229.984940 184.622864,216.179565 
	C174.250595,187.814041 163.860809,159.454834 153.551163,131.066528 
	C141.256409,97.212059 129.099167,63.307434 116.697021,29.492512 
	C115.382622,25.908758 114.670670,23.784796 119.598289,23.698587 
	C120.810555,23.677380 122.007240,22.824938 123.212997,22.359589 
	C125.442116,21.499289 126.422279,21.968927 127.348763,24.552872 
	C137.924240,54.047531 148.743301,83.454727 159.427765,112.910500 
	C164.053543,125.663185 168.518509,138.474213 173.255005,151.608337 
z"/>
<path fill="#FFFFFF" opacity="1.000000" stroke="none" 
	d="
M67.966736,181.060547 
	C60.639862,160.821686 53.330425,140.990051 46.059547,121.144318 
	C43.895458,115.237457 42.262138,109.090500 39.579727,103.435852 
	C37.900181,99.895287 38.721016,96.479927 40.496845,94.618248 
	C42.280350,92.748520 46.176632,93.948189 49.129154,94.147751 
	C50.901180,94.267525 51.252991,96.190262 51.714405,97.453476 
	C59.186745,117.910324 66.550255,138.406891 73.955597,158.888245 
	C78.123428,170.415466 82.322594,181.931381 86.705589,193.997330 
	C82.438332,193.997330 78.406380,193.948578 74.376640,194.021652 
	C72.794052,194.050339 72.299377,193.551849 71.847267,191.907593 
	C70.867058,188.342667 69.316353,184.934601 67.966736,181.060547 
z"/>
<path fill="#FFFFFF" opacity="1.000000" stroke="none" 
	d="
M34.745583,138.394104 
	C40.809319,155.179016 46.696133,171.602341 52.528057,188.045105 
	C54.631779,193.976440 54.571651,193.997787 48.314640,194.000015 
	C40.555603,194.002777 40.603580,193.986298 37.976803,186.332672 
	C34.161316,175.215500 31.458525,163.968719 30.754744,152.100540 
	C30.373755,145.675781 29.663223,139.447617 31.484808,132.861206 
	C33.612316,134.082840 33.254154,136.588531 34.745583,138.394104 
z"/>
<path fill="#316643" opacity="1.000000" stroke="none" 
	d="
M90.860825,32.732658 
	C92.237633,32.099728 93.364555,31.775616 94.395248,31.259386 
	C99.991119,28.456656 101.150398,28.805258 103.553558,35.249954 
	C109.055511,50.004951 114.478378,64.792107 119.651665,79.664185 
	C120.448944,81.956223 123.408394,84.428001 121.149910,86.954254 
	C118.638672,89.763222 115.983055,87.025986 113.506226,86.054718 
	C99.065674,80.391914 83.954895,80.751900 68.847794,80.988190 
	C64.024422,81.063629 59.198505,81.036285 54.374409,80.989128 
	C49.750416,80.943939 48.035133,78.809914 49.410873,74.370377 
	C51.377640,68.023598 55.969799,63.251431 60.194271,58.466972 
	C69.013176,48.479061 79.035278,39.781696 90.860825,32.732658 
z"/>
<path fill="#316643" opacity="1.000000" stroke="none" 
	d="
M47.964470,235.720459 
	C46.573944,235.150070 45.119610,234.243958 44.698978,232.094650 
	C47.954533,230.755341 47.524872,233.473129 47.964470,235.720459 
z"/>
<path fill="#316643" opacity="1.000000" stroke="none" 
	d="
M44.373272,231.096741 
	C43.075726,230.634140 41.936214,229.867981 41.692375,228.081055 
	C44.662041,226.590424 44.369873,228.939758 44.373272,231.096741 
z"/>
<path fill="#FFFFFF" opacity="1.000000" stroke="none" 
	d="
M1352.988770,125.086754 
	C1360.984741,109.846230 1373.697632,102.705139 1390.166138,104.194260 
	C1407.931274,105.800629 1420.892700,118.908638 1423.986206,136.284760 
	C1426.526733,150.555191 1422.656006,162.914536 1412.358398,173.095703 
	C1401.949341,183.387039 1388.949951,185.746140 1375.723511,181.639862 
	C1351.495483,174.117889 1342.581177,146.474319 1352.988770,125.086754 
z"/>
<path fill="#FFFFFF" opacity="1.000000" stroke="none" 
	d="
M422.000244,109.173981 
	C422.020874,107.384727 421.713074,105.865807 423.848480,106.003502 
	C434.983215,106.721481 446.349487,104.104614 457.252686,108.018646 
	C471.198822,113.025009 478.965027,122.986885 481.062134,137.703354 
	C482.702301,149.213257 480.272461,159.366730 473.125000,168.618240 
	C467.528748,175.861847 459.917877,179.137344 451.411957,180.980850 
	C443.072815,182.788177 434.583496,181.580704 426.182373,182.080872 
	C422.514191,182.299240 421.897797,181.000870 421.920441,177.639359 
	C422.073090,154.979935 422.000000,132.318985 422.000244,109.173981 
z"/>
<path fill="#FFFFFF" opacity="1.000000" stroke="none" 
	d="
M694.287598,148.292084 
	C698.993408,137.020782 703.456970,126.063507 708.264832,114.261192 
	C713.803345,127.860229 718.963928,140.531128 724.311340,153.660828 
	C713.485229,153.660828 703.127197,153.660828 692.652893,153.660828 
	C692.530273,151.987259 693.419861,150.328461 694.287598,148.292084 
z"/>
<path fill="#FFFFFF" opacity="1.000000" stroke="none" 
	d="
M864.998047,124.891678 
	C863.720764,130.072159 862.383667,134.588699 858.543945,138.299393 
	C854.154968,142.540955 848.735107,143.317322 843.393372,143.848236 
	C836.968018,144.486847 830.427795,143.885468 823.943481,144.057007 
	C821.433899,144.123398 820.930969,143.203751 820.953674,140.911087 
	C821.059082,130.263809 820.982788,119.614838 821.025513,108.966682 
	C821.030151,107.806961 820.379883,105.945030 822.565491,106.046089 
	C832.443909,106.502853 842.449280,104.598495 852.195923,107.129852 
	C860.947571,109.402817 864.171936,116.142143 864.998047,124.891678 
z"/>
<path fill="#FFFFFF" opacity="1.000000" stroke="none" 
	d="
M104.027412,44.853989 
	C108.023842,55.829559 112.156418,66.347412 115.818817,77.026512 
	C116.543465,79.139511 118.939491,81.066010 117.406174,84.224144 
	C96.111397,73.028557 73.006287,78.364594 50.390289,76.760468 
	C52.300144,71.396805 56.107471,67.184364 59.604721,63.183445 
	C70.116348,51.157936 82.106293,40.720806 96.389740,33.195160 
	C98.674545,31.991341 99.835754,31.892897 100.545967,34.911613 
	C101.315331,38.181778 102.816582,41.279755 104.027412,44.853989 
z"/>
</svg>